<?xml version="1.0" encoding="utf-8"?>
<!-- Generator: Adobe Illustrator 16.0.0, SVG Export Plug-In . SVG Version: 6.00 Build 0)  -->
<!DOCTYPE svg PUBLIC "-//W3C//DTD SVG 1.1//EN" "http://www.w3.org/Graphics/SVG/1.1/DTD/svg11.dtd">
<svg version="1.1" id="Layer_1" xmlns="http://www.w3.org/2000/svg" xmlns:xlink="http://www.w3.org/1999/xlink" x="0px" y="0px"
	 width="666px" height="212.899px" viewBox="0 0 666 212.899" enable-background="new 0 0 666 212.899" xml:space="preserve">
<g>
	<path fill="#010101" d="M121.115,7.276c-1.969,0-3.832,0.422-5.588,1.265c-1.758,0.844-3.287,2.198-4.587,4.06
		c-1.302,1.863-2.338,4.236-3.111,7.118c-0.774,2.883-1.16,6.363-1.16,10.439v25.94h23.093v7.592h-23.093v83.093
		c0,9.561-1.249,18.382-3.743,26.467c-2.496,8.083-6.274,15.061-11.336,20.932c-5.061,5.869-11.388,10.456-18.98,13.761
		c-7.592,3.304-16.45,4.956-26.573,4.956c-3.585,0-7.029-0.3-10.334-0.896c-3.303-0.598-6.221-1.423-8.752-2.478
		s-4.551-2.304-6.063-3.743c-1.511-1.442-2.267-3.042-2.267-4.799c0-1.265,0.176-2.549,0.527-3.849
		c0.353-1.302,0.88-2.478,1.582-3.532c0.704-1.055,1.565-1.916,2.583-2.583c1.02-0.669,2.198-1.002,3.533-1.002
		c0.774,0,1.46,0.386,2.056,1.159c0.598,0.773,1.213,1.723,1.845,2.848c0.633,1.124,1.354,2.372,2.162,3.743
		c0.809,1.371,1.846,2.618,3.111,3.743c1.266,1.124,2.831,2.073,4.692,2.848c1.864,0.772,4.131,1.16,6.801,1.16
		c3.585,0,6.749-0.722,9.491-2.162c2.741-1.441,5.096-3.427,7.065-5.958c1.967-2.53,3.62-5.52,4.956-8.963
		c1.334-3.445,2.389-7.136,3.163-11.072c0.773-3.938,1.318-8.05,1.635-12.337s0.475-8.576,0.475-12.865V63.69H54.894v-7.592h19.403
		V43.761c0-6.185,0.754-11.581,2.267-16.186c1.511-4.604,3.514-8.523,6.01-11.758c2.495-3.232,5.325-5.869,8.489-7.908
		c3.163-2.038,6.379-3.655,9.648-4.851c3.269-1.195,6.449-2.004,9.543-2.425c3.092-0.422,5.8-0.633,8.12-0.633
		c4.99,0,9.419,0.369,13.286,1.107c3.865,0.738,7.1,1.724,9.701,2.953c2.6,1.231,4.569,2.654,5.905,4.271
		c1.334,1.618,2.003,3.269,2.003,4.956c0,1.266-0.194,2.549-0.58,3.849c-0.387,1.302-0.933,2.496-1.634,3.585
		c-0.704,1.091-1.565,1.969-2.583,2.636c-1.02,0.669-2.162,1.002-3.427,1.002c-0.774,0-1.476-0.422-2.109-1.266
		c-0.633-0.843-1.302-1.898-2.003-3.163c-0.704-1.266-1.476-2.636-2.32-4.113c-0.844-1.476-1.882-2.847-3.111-4.112
		c-1.23-1.265-2.689-2.32-4.376-3.164C125.438,7.698,123.435,7.276,121.115,7.276z"/>
	<path fill="#010101" d="M172.995,76.872c2.671-4.076,5.518-7.768,8.541-11.072c1.266-1.405,2.636-2.776,4.113-4.112
		c1.476-1.334,3.005-2.531,4.587-3.585c1.582-1.054,3.216-1.898,4.903-2.531s3.375-0.949,5.062-0.949
		c3.585,0,6.396,1.072,8.436,3.216c2.038,2.146,3.058,5.15,3.058,9.016c0,2.391-0.194,4.692-0.58,6.906
		c-0.387,2.215-1.143,4.903-2.267,8.067h-2.952c-0.422-2.179-1.407-3.989-2.953-5.431c-1.547-1.44-3.796-2.162-6.749-2.162
		c-2.18,0-4.323,0.405-6.432,1.213c-2.109,0.809-4.165,1.811-6.168,3.005c-2.004,1.196-3.902,2.497-5.694,3.902
		c-1.792,1.406-3.427,2.741-4.903,4.007v68.436c0,0.914-0.142,2.003-0.422,3.269c-0.282,1.266-0.967,2.462-2.056,3.585
		c-1.091,1.126-2.707,2.093-4.851,2.9c-2.145,0.808-5.08,1.213-8.805,1.213c-3.727,0-6.661-0.44-8.805-1.318
		c-2.145-0.878-3.78-1.915-4.903-3.11c-1.125-1.195-1.829-2.426-2.109-3.691c-0.282-1.265-0.422-2.283-0.422-3.058V73.181
		c0-2.038-0.475-3.813-1.423-5.325c-0.949-1.512-2.549-2.268-4.798-2.268c-1.196,0-2.214,0.211-3.058,0.633s-1.758,1.02-2.742,1.793
		l-2.214-2.637c1.616-1.334,3.427-2.652,5.431-3.954c2.003-1.3,4.165-2.442,6.485-3.427c2.32-0.983,4.814-1.792,7.487-2.425
		c2.671-0.633,5.483-0.949,8.436-0.949c3.021,0,5.605,0.405,7.75,1.212c2.144,0.809,3.902,1.863,5.272,3.164
		c1.371,1.302,2.442,2.76,3.216,4.376c0.773,1.619,1.353,3.252,1.74,4.904c0.386,1.652,0.615,3.233,0.686,4.745
		C172.959,74.535,172.995,75.817,172.995,76.872z"/>
	<path fill="#010101" d="M247.969,115.676c0,2.251,0.333,4.692,1.001,7.328c0.667,2.637,1.634,5.291,2.9,7.962
		c1.265,2.672,2.829,5.22,4.692,7.645c1.862,2.426,4.007,4.587,6.432,6.485c2.425,1.897,5.114,3.41,8.067,4.534
		c2.953,1.125,6.185,1.688,9.701,1.688c2.46,0,4.745-0.28,6.854-0.844c2.109-0.563,4.076-1.335,5.905-2.32
		c1.827-0.983,3.585-2.125,5.272-3.427c1.687-1.3,3.374-2.689,5.062-4.165l2.636,2.53c-1.618,2.18-3.691,4.57-6.222,7.171
		c-2.531,2.602-5.589,5.045-9.174,7.328c-3.585,2.285-7.769,4.184-12.548,5.694c-4.781,1.511-10.229,2.268-16.344,2.268
		c-6.116,0-12.074-1.107-17.874-3.322c-5.8-2.214-10.95-5.535-15.448-9.965c-4.5-4.429-8.103-9.946-10.808-16.555
		c-2.707-6.607-4.06-14.341-4.06-23.198c0-6.396,0.808-12.267,2.425-17.61c1.617-5.342,3.813-10.157,6.591-14.446
		c2.776-4.287,6.01-8.049,9.701-11.283c3.69-3.232,7.574-5.921,11.652-8.066c4.076-2.144,8.241-3.76,12.496-4.851
		c4.252-1.089,8.347-1.634,12.285-1.634c5.202,0,9.736,0.563,13.603,1.687c3.866,1.125,7.082,2.636,9.648,4.534
		c2.565,1.898,4.482,4.097,5.747,6.591c1.266,2.496,1.898,5.114,1.898,7.855c0,3.306-0.949,6.274-2.847,8.91
		c-1.898,2.637-4.429,4.939-7.592,6.907L247.969,115.676z M269.164,94.27c0.913-0.562,1.669-1.107,2.267-1.634
		c0.596-0.527,1.071-1.16,1.423-1.898c0.351-0.738,0.615-1.651,0.791-2.741c0.175-1.09,0.264-2.442,0.264-4.061
		c0-1.756-0.194-3.707-0.58-5.852c-0.387-2.144-1.038-4.166-1.951-6.063c-0.915-1.898-2.074-3.48-3.48-4.745
		c-1.407-1.266-3.094-1.898-5.062-1.898c-2.53,0-4.692,0.757-6.485,2.268c-1.792,1.512-3.269,3.463-4.429,5.852
		c-1.16,2.392-2.074,5.114-2.742,8.173c-0.669,3.058-1.178,6.134-1.529,9.227c-0.353,3.094-0.563,6.063-0.633,8.91
		c-0.071,2.848-0.105,5.256-0.105,7.224L269.164,94.27z"/>
	<path fill="#010101" d="M354.576,63.058c-1.618,0-3.146,0.211-4.587,0.633c-1.442,0.422-2.726,1.107-3.849,2.056
		c-1.125,0.949-2.004,2.146-2.637,3.585c-0.633,1.442-0.949,3.147-0.949,5.114c0,2.742,1.002,5.467,3.006,8.173
		c2.004,2.707,4.498,5.52,7.486,8.436c2.987,2.918,6.222,5.941,9.701,9.068c3.48,3.129,6.713,6.433,9.701,9.912
		c2.987,3.479,5.483,7.188,7.486,11.125c2.004,3.938,3.006,8.155,3.006,12.653c0,5.062-0.861,9.562-2.584,13.497
		c-1.723,3.938-4.183,7.276-7.381,10.018c-3.199,2.742-7.064,4.835-11.6,6.274c-4.533,1.44-9.578,2.162-15.131,2.162
		c-4.852,0-9.245-0.686-13.182-2.057c-3.938-1.371-7.434-3.058-10.492-5.062c-3.058-2.003-5.678-4.129-7.855-6.38
		c-2.18-2.249-3.867-4.287-5.062-6.115l3.69-2.637c0.913,1.055,2.073,2.198,3.48,3.427c1.405,1.231,2.969,2.373,4.691,3.428
		s3.568,1.916,5.537,2.583c1.967,0.669,3.971,1.002,6.01,1.002c5.063,0,9.209-1.213,12.443-3.638
		c3.232-2.426,4.851-6.027,4.851-10.809c0-2.671-0.88-5.431-2.636-8.277c-1.759-2.848-3.973-5.782-6.645-8.806
		c-2.672-3.021-5.554-6.15-8.646-9.385c-3.094-3.232-5.976-6.572-8.646-10.018c-2.672-3.443-4.887-6.994-6.643-10.649
		c-1.758-3.655-2.637-7.451-2.637-11.389c0-4.429,0.896-8.294,2.689-11.6c1.792-3.303,4.182-6.045,7.17-8.225
		c2.987-2.178,6.396-3.813,10.229-4.903c3.83-1.089,7.785-1.634,11.863-1.634c4.709,0,8.997,0.421,12.864,1.265
		c3.865,0.844,7.187,2.127,9.965,3.849c2.776,1.723,4.92,3.885,6.433,6.485c1.51,2.602,2.267,5.625,2.267,9.068
		c0,2.673-0.88,4.992-2.636,6.96c-1.758,1.969-4.219,2.952-7.382,2.952c-3.023,0-5.325-0.649-6.907-1.951
		c-1.581-1.3-2.372-3.074-2.372-5.324c0-1.477,0.369-2.637,1.107-3.48c0.737-0.844,1.563-1.528,2.478-2.056
		c0.913-0.527,1.74-0.984,2.479-1.371c0.738-0.386,1.107-0.896,1.107-1.529c0-1.967-1.055-3.532-3.164-4.692
		C360.586,63.638,357.879,63.058,354.576,63.058z"/>
	<path fill="#010101" d="M469.514,91.107c-2.18,0-4.006-0.333-5.482-1.002c-1.477-0.667-2.673-1.563-3.586-2.688
		c-0.914-1.124-1.581-2.373-2.003-3.744c-0.422-1.37-0.633-2.794-0.633-4.271c0-1.897,0.122-3.725,0.369-5.483
		c0.245-1.756,0.28-3.338,0.105-4.745c-0.177-1.405-0.722-2.53-1.634-3.374c-0.915-0.844-2.531-1.265-4.852-1.265
		c-2.461,0-5.061,0.704-7.803,2.109c-2.742,1.407-5.238,3.621-7.486,6.643c-2.252,3.023-4.113,6.907-5.59,11.652
		c-1.476,4.745-2.214,10.458-2.214,17.136c0,7.381,0.686,14.113,2.056,20.193c1.371,6.081,3.428,11.266,6.17,15.553
		c2.741,4.289,6.15,7.61,10.228,9.965c4.077,2.356,8.858,3.533,14.341,3.533c2.46,0,4.799-0.28,7.013-0.844
		c2.214-0.563,4.306-1.335,6.274-2.32c1.967-0.983,3.849-2.125,5.641-3.427c1.793-1.3,3.533-2.689,5.221-4.165l2.636,2.53
		c-1.618,2.18-3.69,4.57-6.222,7.171c-2.531,2.602-5.589,5.045-9.174,7.328c-3.586,2.285-7.769,4.184-12.549,5.694
		c-4.781,1.511-10.229,2.268-16.344,2.268c-6.116,0-12.074-1.179-17.873-3.533c-5.801-2.354-10.951-5.781-15.449-10.28
		c-4.499-4.498-8.103-9.965-10.808-16.397c-2.707-6.433-4.06-13.761-4.06-21.986c0-6.396,0.807-12.284,2.425-17.662
		c1.616-5.378,3.813-10.245,6.591-14.604c2.775-4.358,6.01-8.188,9.701-11.494c3.69-3.304,7.574-6.063,11.652-8.277
		c4.076-2.214,8.24-3.883,12.495-5.009c4.253-1.124,8.347-1.687,12.284-1.687c5.202,0,9.736,0.598,13.604,1.792
		c3.865,1.196,7.081,2.778,9.648,4.745c2.564,1.969,4.481,4.236,5.746,6.802c1.266,2.566,1.898,5.22,1.898,7.961
		c0,2.04-0.264,3.99-0.791,5.853c-0.527,1.863-1.301,3.479-2.319,4.851c-1.021,1.371-2.304,2.461-3.849,3.269
		C473.346,90.704,471.553,91.107,469.514,91.107z"/>
</g>
<g>
	<g>
		<path d="M507.817,141.081c-20.471-35.434-8.273-80.915,27.182-101.383c35.428-20.45,80.912-8.272,101.359,27.163
			c14.498,25.128,12.527,55.234-2.399,77.946l8,5.287c16.897-25.638,19.102-59.607,2.692-88.014
			c-23.141-40.079-74.378-53.815-114.452-30.674c-40.079,23.141-53.815,74.378-30.675,114.474
			c16.409,28.409,46.928,43.473,77.578,41.658l-0.566-9.562C549.394,179.557,522.312,166.211,507.817,141.081L507.817,141.081z
			 M507.817,141.081"/>
	</g>
	<path fill="#F47621" d="M616.38,180.688c-10.322,5.951-21.502,9.073-32.663,9.717l0.565,9.58
		c12.605-0.746,25.209-4.277,36.877-11.023c11.668-6.731,21.033-15.883,27.98-26.419l-8-5.287
		C634.993,166.601,626.7,174.718,616.38,180.688L616.38,180.688z M616.38,180.688"/>
	<path d="M637.14,154.622l-57.871-38.209l4.156,69.213c10.438-0.605,20.896-3.513,30.555-9.093
		C623.638,170.971,631.403,163.362,637.14,154.622L637.14,154.622z M603.072,174.601c-0.331,1.269-1.132,2.321-2.263,2.966
		c-0.742,0.429-1.601,0.658-2.439,0.658c-1.736,0-3.375-0.932-4.234-2.434c-0.663-1.132-0.839-2.459-0.488-3.707
		c0.332-1.269,1.152-2.303,2.283-2.967c0.723-0.429,1.581-0.663,2.42-0.663c1.736,0,3.375,0.956,4.234,2.439
		C603.248,172.045,603.423,173.333,603.072,174.601L603.072,174.601z M610.994,157.489c-0.352,0.176-0.702,0.371-1.015,0.605
		c-0.332,0.254-0.625,0.526-0.878,0.8c-0.526,0.546-1.034,1.034-1.718,1.034c-0.624,0-1.189-0.391-1.834-1.249
		c-0.761-1.034-2.049-3.277-3.121-5.521c-1.912,1.015-3.727,1.562-5.151,1.562c-1.464,0-2.185-0.566-2.556-1.059
		c-0.703-0.951-0.977-2.961-0.664-5.088c0.43-2.888,1.814-5.386,3.805-6.868c1.951-1.444,4.234-1.737,5.775-1.737
		c2.791,0,5.619,0.977,6.576,2.264c1.131,1.562,0.039,4.41-2.752,7.22c1.756,1.6,3.591,3.512,4.371,4.585
		c0.605,0.839,0.819,1.463,0.683,2.029C612.341,156.782,611.677,157.119,610.994,157.489L610.994,157.489z M610.994,157.489"/>
	<path fill="#F47621" d="M632.223,69.258c-19.142-33.153-61.696-44.545-94.846-25.404c-33.153,19.141-44.545,61.676-25.424,94.821
		c13.58,23.517,38.884,36.004,64.271,34.501l-4.139-69.21l57.874,38.206C643.949,120.924,645.783,92.75,632.223,69.258
		L632.223,69.258z M533.354,60.751c0.764-0.41,1.604-0.644,2.441-0.644c1.734,0,3.359,0.939,4.232,2.458
		c0.644,1.112,0.819,2.437,0.49,3.685c-0.33,1.269-1.135,2.322-2.264,2.966c-0.744,0.432-1.578,0.666-2.437,0.666
		c-1.739,0-3.358-0.934-4.236-2.458C530.233,65.102,531.038,62.114,533.354,60.751L533.354,60.751z M538.86,135.519
		c-1.815,1.034-3.881,1.581-5.969,1.581c-4.256,0-8.236-2.283-10.365-5.951c-3.298-5.736-1.324-13.034,4.37-16.332
		c1.817-1.053,3.866-1.6,5.954-1.6c4.25,0,8.23,2.283,10.36,5.971C546.486,124.885,544.538,132.222,538.86,135.519L538.86,135.519z
		 M552.911,100.844c-0.568,0.195-1.096,0.49-1.584,0.744c-0.76,0.43-1.404,0.801-2.088,0.801c-1.309,0-1.934-1.288-2.344-2.422
		c-0.658-1.793-1.539-5.62-2.088-9.071c-1.616,0.349-3.155,0.508-4.584,0.508c-3.352,0-5.559-0.979-6.203-2.751
		c-0.604-1.678-0.021-4.761,1.441-7.668c1.035-2.046,3.418-5.678,7.593-7.202c1.29-0.463,2.692-0.7,4.155-0.7
		c5.834,0,11.415,3.746,12.334,6.28c0.935,2.536-1.797,5.973-6.834,8.665c1.993,3.298,3.652,6.693,4.256,8.273
		c0.469,1.307,0.525,2.222,0.156,2.885c-0.465,0.82-1.465,1.015-2.52,1.229C554.06,100.516,553.474,100.611,552.911,100.844
		L552.911,100.844z M562.915,150.114c-0.738,0.41-1.578,0.664-2.437,0.664c-1.739,0-3.356-0.957-4.236-2.459
		c-1.344-2.342-0.544-5.326,1.798-6.653c0.741-0.449,1.58-0.663,2.438-0.663c1.736,0,3.356,0.916,4.233,2.438
		C566.037,145.763,565.259,148.749,562.915,150.114L562.915,150.114z M590.175,62.114c-1.307,0.763-2.81,1.173-4.331,1.173
		c-3.083,0-5.99-1.659-7.532-4.329c-2.399-4.156-0.975-9.485,3.182-11.885c1.326-0.764,2.809-1.174,4.331-1.174
		c3.103,0,5.989,1.681,7.531,4.352C595.755,54.407,594.331,59.736,590.175,62.114L590.175,62.114z M610.799,117.491
		c-0.741,0.43-1.581,0.644-2.458,0.644c-1.736,0-3.356-0.917-4.215-2.438c-1.346-2.322-0.547-5.327,1.775-6.674
		c0.762-0.429,1.58-0.644,2.439-0.644c1.756,0,3.355,0.937,4.233,2.439C613.921,113.139,613.12,116.125,610.799,117.491
		L610.799,117.491z M627.11,92.828c-0.371,0.449-0.761,0.896-1.072,1.405c-0.313,0.51-0.527,1.054-0.742,1.578
		c-0.469,1.134-0.956,2.303-2.283,2.303c-0.604,0-1.307-0.249-2.205-0.801c-1.424-0.878-4.428-3.16-7.297-5.772
		c-3.59,4.37-7.531,6.397-9.814,5.015c-1.424-0.879-2.809-3.337-3.551-6.303c-0.976-4.002-0.508-8.02,1.287-10.985
		c2.791-4.565,8.645-6.653,12.918-6.653c1.463,0,2.672,0.234,3.434,0.705c2.303,1.402,2.322,5.792,0.098,11.024
		c3.629,1.344,7.043,2.961,8.487,3.82c1.19,0.724,1.795,1.404,1.912,2.148C628.438,91.245,627.794,92.008,627.11,92.828
		L627.11,92.828z M627.11,92.828"/>
</g>
</svg>
